# xmcd
#
# Track frame offsets: 
#        150
#        13205
#        25740
#        37333
#        50346
#        62313
#        75775
#        89620
#        100318
#        114470
#        126375
#        137544
#        150422
#        160945
#        174390
#        187074
#        197899
#        209442
#        221295
#        233699
#
# Disc length: 3302 seconds
#
# Revision: 0
# Processed by: cddbd v1.5.2PL0 Copyright (c) Steve Scherf et al.
# Submitted via: ExactAudioCopy v0.99pb4
#
DISCID=0b0ce414
DTITLE=Charles, Ray - Heart and Soul [2CD, CD1]
DYEAR=2006
DGENRE=Soul
TTITLE0=I got a woman
TTITLE1=It should've been me
TTITLE2=This little girl of mine
TTITLE3=Greenbacks
TTITLE4=What would I do without you?
TTITLE5=Don't you know
TTITLE6=A fool for you
TTITLE7=Blackjack
TTITLE8=Come back baby
TTITLE9=How long blues
TTITLE10=A sentimental blues
TTITLE11=You'll never miss the water (until the well runs dry)
TTITLE12=Ain't that fine
TTITLE13=Alone in the city
TTITLE14=Rocking chair
TTITLE15=Th' ego song
TTITLE16=She's on the ball
TTITLE17=See see rider
TTITLE18=I've had my fun (goin' down slow)
TTITLE19=Late in the evening blues
EXTD=
EXTT0=
EXTT1=
EXTT2=
EXTT3=
EXTT4=
EXTT5=
EXTT6=
EXTT7=
EXTT8=
EXTT9=
EXTT10=
EXTT11=
EXTT12=
EXTT13=
EXTT14=
EXTT15=
EXTT16=
EXTT17=
EXTT18=
EXTT19=
PLAYORDER=
